<svg t="1702518165770" class="icon" viewBox="0 0 1024 1024" version="1.1" xmlns="http://www.w3.org/2000/svg" p-id="6682" width="200" height="200"><path d="M356.693333 85.333333c17.536 0 31.36 13.994667 31.36 30.848 0 12.330667 10.496 22.186667 23.04 22.186667h41.429334c63.232 0.426667 114.773333 50.944 115.2 112.64v7.808c39.722667 0 79.530667 0.810667 119.722666 1.194667 145.28 0 251.221333 103.594667 251.221334 246.613333v183.765333c0 143.061333-105.941333 246.613333-251.221334 246.613334-58.197333 1.28-116.394667 1.664-175.018666 1.664s-117.674667-0.426667-175.872-1.664C191.274667 937.002667 85.333333 833.450667 85.333333 690.389333v-183.722666c0-143.061333 105.941333-246.613333 251.648-246.613334 54.869333-0.853333 110.933333-1.706667 167.893334-1.706666v-6.954667c0-28.373333-23.893333-51.370667-52.352-51.370667h-41.429334c-47.317333 0-85.845333-37.802667-85.845333-83.84 0-16.853333 14.250667-30.848 31.402667-30.848z m30.933334 408.149334a31.061333 31.061333 0 0 0-31.402667 30.848v43.178666H311.893333a31.36 31.36 0 0 0-31.402666 30.805334c0 17.28 14.250667 30.848 31.402666 30.848h44.373334v43.52c0 16.896 13.824 30.848 31.402666 30.848a31.36 31.36 0 0 0 31.402667-30.805334v-43.562666h43.946667a31.061333 31.061333 0 0 0 31.445333-30.848 31.36 31.36 0 0 0-31.402667-30.805334h-43.946666v-43.178666a31.36 31.36 0 0 0-31.445334-30.848z m329.130666 145.92H712.533333a30.805333 30.805333 0 1 0 0 61.653333h4.181334a31.061333 31.061333 0 0 0 31.402666-30.805333 31.36 31.36 0 0 0-31.402666-30.805334z m-71.594666-141.397334h-4.181334a30.805333 30.805333 0 1 0 0 61.653334h4.181334a31.061333 31.061333 0 0 0 31.402666-30.805334 31.36 31.36 0 0 0-31.402666-30.848z" fill="#200E32" p-id="6683"></path></svg>