<svg t="1702517473032" class="icon" viewBox="0 0 1024 1024" version="1.1" xmlns="http://www.w3.org/2000/svg" p-id="6524" width="200" height="200"><path d="M382.122667 211.626667c20.906667-3.925333 41.898667 6.485333 50.986666 25.386666 2.304 3.413333 4.096 7.125333 5.418667 10.965334 5.802667 89.472 11.989333 177.450667 17.792 265.386666-0.128 9.130667 1.28 18.218667 4.266667 26.88 6.912 17.066667 24.149333 27.946667 42.88 26.965334l283.989333-18.218667 1.92 0.768 5.205333 0.384c10.24 1.28 19.84 5.973333 27.093334 13.354667 8.490667 8.618667 13.098667 20.138667 12.928 32.128-11.221333 163.072-130.773333 299.349333-293.461334 334.421333-162.730667 35.114667-329.514667-39.381333-409.386666-182.784a350.506667 350.506667 0 0 1-43.690667-133.802667 254.122667 254.122667 0 0 1-2.688-42.112C85.930667 397.952 209.365333 248.32 382.122667 211.626667zM550.997333 85.333333c194.986667 5.888 357.973333 147.456 387.541334 336.64a10.410667 10.410667 0 0 1 0 3.413334l-0.085334 5.376a33.408 33.408 0 0 1-8.32 19.2 34.645333 34.645333 0 0 1-23.68 11.477333l-327.68 21.589333-5.376 0.128a39.04 39.04 0 0 1-24.192-9.941333 37.546667 37.546667 0 0 1-12.544-28.074667l-22.016-321.877333v-5.290667a33.834667 33.834667 0 0 1 11.264-23.68 35.157333 35.157333 0 0 1 25.088-8.96z" fill="#200E32" p-id="6525"></path></svg>