<svg t="1702519281377" class="icon" viewBox="0 0 1025 1024" version="1.1" xmlns="http://www.w3.org/2000/svg" p-id="11291" id="mx_n_1702519281378" width="180" height="180"><path d="M976.19341 120.0128l-6.114743-9.186743c-38.648686-58.426514-97.455543-95.232-160.095086-106.759314-62.785829-11.6736-130.779429 1.726171-187.713829 42.481371L535.87341 108.251429c-35.401143 25.278171-44.617143 75.220114-20.597029 111.498971 24.020114 36.278857 72.235886 45.202286 107.549257 19.894857l86.396343-61.703314c22.089143-15.711086 47.338057-20.626286 71.562971-16.208457 24.224914 4.564114 46.08 18.168686 61.059657 40.696686l6.085486 9.157486c14.921143 22.586514 19.338971 48.596114 14.833371 73.581714-4.739657 25.219657-18.197943 48.010971-40.199314 63.780571l-210.154057 150.147657c-21.972114 15.652571-47.396571 20.509257-72.235886 16.062171-23.669029-4.417829-45.377829-18.0224-60.357486-40.608914l-6.085486-9.186743-128.175543 91.633371 6.056229 9.157486c38.385371 57.9584 96.636343 95.114971 159.480686 106.671543 0.117029 0 0.234057 0.029257 0.380343 0.029257 62.434743 11.556571 130.6624-1.4336 187.947886-42.3936l210.154057-150.1184c57.1392-40.784457 93.3888-102.048914 105.354971-166.999771C1027.071582 248.393143 1014.812839 178.322286 976.19341 120.0128zM400.646896 699.713829l-90.5216 64.687543c-22.001371 15.652571-47.425829 20.597029-72.265143 16.062171-23.669029-4.417829-45.348571-17.993143-60.357486-40.5504l-6.085486-9.157486c-14.891886-22.557257-19.309714-48.654629-14.716343-73.962057 4.681143-24.956343 18.080914-47.630629 40.053029-63.370971l210.154057-150.147657c22.030629-15.711086 47.3088-20.567771 71.562971-16.208457 24.224914 4.564114 46.050743 18.168686 61.001143 40.696686l6.085486 9.186743 0 0.029257 128.2048-91.604114L673.762325 385.316571l-6.085486-9.128229-11.029943-16.647314c-4.7104-7.168-10.357029-13.194971-16.647314-18.168686-36.483657-38.385371-83.295086-62.990629-132.447086-71.972571-62.639543-11.732114-130.691657 1.726171-187.684571 42.452114L109.743125 462.0288c-56.875886 40.5504-93.301029 101.610057-105.237943 166.560914-12.0832 64.863086-0.087771 135.168 38.736457 193.7408l6.085486 9.128229c38.356114 58.016914 96.636343 95.114971 159.422171 106.7008l0.438857 0c62.434743 11.585829 130.633143-1.404343 187.947886-42.3936l90.5216-64.658286c35.401143-25.307429 44.617143-75.190857 20.597029-111.498971C484.234553 683.329829 436.048039 674.435657 400.646896 699.713829z" p-id="11292" fill="#200E32"></path></svg>