<svg t="1702517246229" class="icon" viewBox="0 0 1024 1024" version="1.1" xmlns="http://www.w3.org/2000/svg" p-id="6364" width="200" height="200"><path d="M690.816 85.333333C822.613333 85.333333 896 161.28 896 291.413333v440.746667c0 132.266667-73.386667 206.506667-205.184 206.506667H333.226667C203.52 938.666667 128 864.426667 128 732.16V291.413333C128 161.28 203.52 85.333333 333.226667 85.333333zM344.746667 671.573333a33.92 33.92 0 0 0-32 51.626667c6.826667 10.666667 19.2 17.066667 32 15.36h334.506666c17.024-1.706667 29.866667-16.256 29.866667-33.28 0-17.493333-12.842667-32-29.866667-33.706667z m334.506666-194.602666H344.746667a33.322667 33.322667 0 0 0 0 66.602666h334.506666a33.322667 33.322667 0 0 0 0-66.602666zM472.277333 283.733333H344.746667v0.426667a33.28 33.28 0 0 0 0 66.56h127.530666c18.389333 0 33.322667-14.933333 33.322667-33.749333a33.322667 33.322667 0 0 0-33.322667-33.237334z" fill="#200E32" p-id="6365"></path></svg>