<!-- <svg t="1698033069913" class="icon" viewBox="0 0 1024 1024" version="1.1" xmlns="http://www.w3.org/2000/svg" p-id="1574" width="40" height="40" ><path d="M835.56 742.29l-162.67-136.5c24.38-40.57 38.4-88.07 38.4-138.85 0-149.12-120.88-270-270-270s-270 120.88-270 270 120.88 270 270 270c63.67 0 122.18-22.05 168.34-58.91l164.22 137.8c20.31 17.04 50.58 14.39 67.62-5.92 17.05-20.31 14.4-50.58-5.91-67.62zM295.63 612.6c-38.91-38.91-60.34-90.64-60.34-145.66 0-55.02 21.43-106.76 60.34-145.66 38.91-38.91 90.64-60.34 145.66-60.34s106.76 21.43 145.66 60.34c38.91 38.91 60.34 90.64 60.34 145.66 0 55.02-21.43 106.76-60.34 145.66s-90.64 60.34-145.66 60.34-106.75-21.43-145.66-60.34z" p-id="1575" fill="#000000"></path> </svg> -->
<svg t="1702521424789" class="icon" viewBox="0 0 1024 1024" version="1.1" xmlns="http://www.w3.org/2000/svg" p-id="2530" width="200" height="200"><path d="M431.36 149.333333c167.466667 0 303.274667 137.258667 303.274667 306.56a307.285333 307.285333 0 0 1-67.84 193.28l40.661333 40.661334c18.389333-4.906667 38.826667-0.128 53.205333 14.208l119.168 119.210666c20.181333 20.138667 21.546667 51.968 3.754667 73.728l-3.84 4.181334a55.168 55.168 0 0 1-77.909333 0.085333L682.666667 782.037333a54.954667 54.954667 0 0 1-14.293334-53.205333l-39.936-39.936a300.245333 300.245333 0 0 1-197.12 73.557333C263.808 762.453333 128 625.194667 128 455.893333 128 286.592 263.808 149.333333 431.36 149.333333z m0 85.333334C311.082667 234.666667 213.333333 333.525333 213.333333 455.893333c0 122.368 97.792 221.226667 218.026667 221.226667 120.149333 0 217.941333-98.858667 217.941333-221.226667 0-122.368-97.792-221.226667-217.984-221.226666z" fill="#111F2C" fill-opacity=".8" p-id="2531"></path></svg>